<?xml version="1.0" encoding="UTF-8" standalone="no"?>
<!DOCTYPE svg PUBLIC "-//W3C//DTD SVG 1.1//EN" "http://www.w3.org/Graphics/SVG/1.1/DTD/svg11.dtd">
<svg width="100%" height="100%" viewBox="0 0 2000 2000" version="1.1" xmlns="http://www.w3.org/2000/svg" xmlns:xlink="http://www.w3.org/1999/xlink" xml:space="preserve" xmlns:serif="http://www.serif.com/" style="fill-rule:evenodd;clip-rule:evenodd;stroke-linejoin:round;stroke-miterlimit:2;">
    <g transform="matrix(1.299646,0,0,1.299646,-64.303415,-269.182551)">
        <path d="M109.988,1199.451C96.011,1195.486 82.204,1191.115 68.58,1186.353C56.085,1132.794 49.478,1076.984 49.478,1019.642C49.478,877.695 89.969,745.131 160.02,632.879C152.941,620.192 146.269,607.338 140.003,594.337C169.039,547.63 203.831,503.494 244.378,462.947C344.749,362.576 467.118,297.47 596.026,267.63C599.992,253.653 604.362,239.846 609.125,226.222C662.684,213.727 718.494,207.12 775.835,207.12C917.782,207.12 1050.347,247.611 1162.599,317.663C1175.286,310.583 1188.14,303.911 1201.141,297.645C1247.847,326.682 1291.984,361.473 1332.53,402.02C1432.902,502.392 1498.008,624.76 1527.848,753.668C1541.825,757.634 1555.632,762.005 1569.256,766.767C1581.75,820.326 1588.358,876.136 1588.358,933.478C1588.358,1075.425 1547.867,1207.989 1477.815,1320.241C1484.894,1332.928 1491.567,1345.782 1497.833,1358.783C1468.796,1405.49 1434.004,1449.626 1393.458,1490.172C1293.086,1590.544 1170.717,1655.65 1041.809,1685.49C1037.844,1699.467 1033.473,1713.274 1028.711,1726.898C975.152,1739.392 919.342,1746 862,1746C720.053,1746 587.488,1705.509 475.237,1635.457C462.549,1642.536 449.696,1649.209 436.695,1655.475C389.988,1626.438 345.852,1591.647 305.305,1551.1C204.933,1450.728 139.828,1328.36 109.988,1199.451Z" style="fill:white;"/>
    </g>
    <g transform="matrix(1.299646,0,0,1.299646,-64.303415,-269.182551)">
        <g transform="matrix(1,0,0,1,-242,-292)">
            <path d="M1270.711,2018.898C1217.152,2031.392 1161.342,2038 1104,2038C699.998,2038 372,1710.002 372,1306C372,1221.453 386.365,1140.235 412.785,1064.656C466.343,1052.161 522.154,1045.553 579.495,1045.553C983.497,1045.553 1311.495,1373.552 1311.495,1777.553C1311.495,1862.1 1297.131,1943.318 1270.711,2018.898Z" style="fill:rgb(184,28,28);"/>
        </g>
        <g transform="matrix(0.707107,0.707107,-0.707107,0.707107,965.742924,-670.629503)">
            <path d="M1270.711,2018.898C1217.152,2031.392 1161.342,2038 1104,2038C699.998,2038 372,1710.002 372,1306C372,1221.453 386.365,1140.235 412.785,1064.656C466.343,1052.161 522.154,1045.553 579.495,1045.553C983.497,1045.553 1311.495,1373.552 1311.495,1777.553C1311.495,1862.1 1297.131,1943.318 1270.711,2018.898Z" style="fill:rgb(23,0,184);"/>
        </g>
        <g transform="matrix(0,1,-1,0,2087.477624,-84.357781)">
            <path d="M1270.711,2018.898C1217.152,2031.392 1161.342,2038 1104,2038C699.998,2038 372,1710.002 372,1306C372,1221.453 386.365,1140.235 412.785,1064.656C466.343,1052.161 522.154,1045.553 579.495,1045.553C983.497,1045.553 1311.495,1373.552 1311.495,1777.553C1311.495,1862.1 1297.131,1943.318 1270.711,2018.898Z" style="fill:rgb(196,0,174);"/>
        </g>
        <g transform="matrix(-0.707107,0.707107,-0.707107,-0.707107,2466.107128,1123.385142)">
            <path d="M1270.711,2018.898C1217.152,2031.392 1161.342,2038 1104,2038C699.998,2038 372,1710.002 372,1306C372,1221.453 386.365,1140.235 412.785,1064.656C466.343,1052.161 522.154,1045.553 579.495,1045.553C983.497,1045.553 1311.495,1373.552 1311.495,1777.553C1311.495,1862.1 1297.131,1943.318 1270.711,2018.898Z" style="fill:rgb(183,0,0);"/>
        </g>
        <g transform="matrix(-1,0,-0,-1,1879.835406,2245.119843)">
            <path d="M1270.711,2018.898C1217.152,2031.392 1161.342,2038 1104,2038C699.998,2038 372,1710.002 372,1306C372,1221.453 386.365,1140.235 412.785,1064.656C466.343,1052.161 522.154,1045.553 579.495,1045.553C983.497,1045.553 1311.495,1373.552 1311.495,1777.553C1311.495,1862.1 1297.131,1943.318 1270.711,2018.898Z" style="fill:rgb(0,165,178);"/>
        </g>
        <g transform="matrix(-0.707107,-0.707107,0.707107,-0.707107,672.092482,2623.749346)">
            <path d="M1270.711,2018.898C1217.152,2031.392 1161.342,2038 1104,2038C699.998,2038 372,1710.002 372,1306C372,1221.453 386.365,1140.235 412.785,1064.656C466.343,1052.161 522.154,1045.553 579.495,1045.553C983.497,1045.553 1311.495,1373.552 1311.495,1777.553C1311.495,1862.1 1297.131,1943.318 1270.711,2018.898Z" style="fill:rgb(159,0,28);"/>
        </g>
        <g transform="matrix(-0,-1,1,-0,-449.642219,2037.477624)">
            <path d="M1270.711,2018.898C1217.152,2031.392 1161.342,2038 1104,2038C699.998,2038 372,1710.002 372,1306C372,1221.453 386.365,1140.235 412.785,1064.656C466.343,1052.161 522.154,1045.553 579.495,1045.553C983.497,1045.553 1311.495,1373.552 1311.495,1777.553C1311.495,1862.1 1297.131,1943.318 1270.711,2018.898Z" style="fill:rgb(255,229,96);"/>
        </g>
        <g transform="matrix(0.707107,-0.707107,0.707107,0.707107,-828.271722,829.734701)">
            <path d="M1270.711,2018.898C1217.152,2031.392 1161.342,2038 1104,2038C699.998,2038 372,1710.002 372,1306C372,1221.453 386.365,1140.235 412.785,1064.656C466.343,1052.161 522.154,1045.553 579.495,1045.553C983.497,1045.553 1311.495,1373.552 1311.495,1777.553C1311.495,1862.1 1297.131,1943.318 1270.711,2018.898Z" style="fill:rgb(75,129,255);"/>
        </g>
    </g>
</svg>
